# xmcd
#
# Track frame offsets:
#	150
#	49410
#	86811
#	113319
#	138003
#	171208
#	210960
#
# Disc length: 3226 seconds
#
# Revision: 2
# Processed by: cddbd v1.5.2PL0 Copyright (c) Steve Scherf et al.
# Submitted via: EZCDDA 4.3.2
#
DISCID=520c9807
DTITLE=Holmgang - Gengangerens Kvad
DYEAR=1900
DGENRE=
TTITLE0=Himmelhvaelvets Bane
TTITLE1=Skaebnesvig
TTITLE2=Laast Vaek Fra Verden
TTITLE3=Bragt Til Baalet
TTITLE4=Dyssen
TTITLE5=Ravnenes Jagt
TTITLE6=Blodoern
EXTD=
EXTT0=
EXTT1=
EXTT2=
EXTT3=
EXTT4=
EXTT5=
EXTT6=
PLAYORDER=
